<svg data-v-423bf9ae="" xmlns="http://www.w3.org/2000/svg" viewBox="0 0 338 105" class="iconLeft"><!----><!----><!----><g data-v-423bf9ae="" id="7e8c9ef9-c97b-4549-8386-bc6f4f99901a" fill="black" transform="matrix(6.896551119350467,0,0,6.896551119350467,104.2504224498451,-9.63503798671185)"><path d="M4.00 13.34C4.91 13.34 5.66 13.07 6.27 12.60L5.45 11.58C5.09 11.93 4.58 12.13 4.03 12.13C2.73 12.13 1.95 11.14 1.95 9.84C1.95 8.55 2.73 7.57 4.03 7.57C4.58 7.57 5.09 7.77 5.45 8.12L6.27 7.10C5.66 6.64 4.91 6.36 4.00 6.36C1.94 6.36 0.51 7.89 0.51 9.84C0.51 11.81 1.94 13.34 4.00 13.34ZM10.57 13.34C12.66 13.34 14.12 11.81 14.12 9.84C14.12 7.89 12.66 6.36 10.57 6.36C8.46 6.36 7.01 7.89 7.01 9.84C7.01 11.81 8.46 13.34 10.57 13.34ZM10.57 12.13C9.35 12.13 8.49 11.14 8.49 9.84C8.49 8.56 9.35 7.57 10.57 7.57C11.78 7.57 12.64 8.56 12.64 9.84C12.64 11.14 11.78 12.13 10.57 12.13ZM18.39 13.33C19.83 13.33 21.35 12.67 21.35 10.31L21.35 6.53L19.94 6.53L19.94 10.32C19.94 11.43 19.40 12.12 18.39 12.12C17.38 12.12 16.84 11.43 16.84 10.32L16.84 6.53L15.43 6.53L15.43 10.31C15.43 12.67 16.95 13.33 18.39 13.33ZM26.48 6.36C25.55 6.36 24.85 6.75 24.44 7.32L24.27 6.53L23.03 6.53L23.03 13.15L24.44 13.15L24.44 9.11C24.56 7.95 25.35 7.57 26.09 7.57C27.11 7.57 27.55 8.30 27.55 9.38L27.55 13.15L28.96 13.15L28.96 9.06C28.96 7 27.64 6.36 26.48 6.36ZM33.79 6.53L32.38 6.53L32.38 4.64L30.98 4.64L30.98 6.53L30.10 6.53L30.10 7.67L30.98 7.67L30.98 13.15L32.39 13.15L32.38 7.67L33.79 7.67Z"></path></g><!----><g data-v-423bf9ae="" id="951536e2-bd77-41da-8df3-1b41f26aa9b8" transform="matrix(1.078733401828342,0,0,1.078733401828342,-9.617546396035728,-1.4796733238645388)" stroke="none" fill="black"><path d="M62.441 60.641a1.413 1.413 0 00-1.318-.144l-7.844 3.117c-.938-1.044-2.283-1.714-3.794-1.714s-2.856.67-3.795 1.715l-7.844-3.118a1.417 1.417 0 00-1.94 1.318v10.217a1.416 1.416 0 001.968 1.305l7.58-3.195c.938 1.209 2.387 2.002 4.031 2.002 1.644 0 3.093-.793 4.031-2.002l7.579 3.195a1.423 1.423 0 001.334-.125c.396-.262.634-.705.634-1.18V61.814c0-.47-.233-.91-.622-1.173zM38.74 69.895v-5.992l5.71 2.27a5.06 5.06 0 00-.086.85c0 .164.033.32.049.482l-5.673 2.39zm10.745-.588a2.288 2.288 0 01-2.286-2.285c0-1.262 1.025-2.286 2.286-2.286s2.286 1.024 2.286 2.286a2.288 2.288 0 01-2.286 2.285zm10.744.588l-5.672-2.391c.016-.162.049-.318.049-.482a5.07 5.07 0 00-.086-.85l5.709-2.27v5.993z"></path><path d="M89.716 43.971l-12.427-4.185c-.063-.021-.125-.031-.188-.043a29.223 29.223 0 001.398-8.942c0-16.18-13.163-29.344-29.344-29.344S19.812 14.621 19.812 30.801c0 3.305.558 6.479 1.569 9.446l-11.059 3.724a1.416 1.416 0 00-.429 2.453c4.183 3.327 7.703 6.816 10.582 10.428-6.897 7.211-11.156 16.962-11.156 27.707v12.566c0 .783.635 1.418 1.417 1.418h77.496c.783 0 1.418-.635 1.418-1.418V84.559c0-10.703-4.227-20.42-11.078-27.624 2.787-3.687 6.591-7.146 11.484-10.445a1.418 1.418 0 00-.34-2.519zM57.771 5.736a16.699 16.699 0 00-8.224 6.661 16.525 16.525 0 00-8.59-6.802 26.413 26.413 0 0116.814.141zm-21.34 1.817a13.742 13.742 0 0111.671 8.125c.215.479.664.768 1.151.818.137.042.275.07.413.07.544 0 1.063-.314 1.297-.843a13.832 13.832 0 0111.022-8.11C70.134 12.14 75.664 20.835 75.664 30.8c0 14.617-11.892 26.508-26.509 26.508S22.646 45.417 22.646 30.801c0-10.009 5.577-18.738 13.785-23.248zm34.967 56.918a1.418 1.418 0 001.347 1.859c.596 0 1.15-.379 1.346-.977a27.872 27.872 0 012.836-6.027c6.123 6.648 9.888 15.502 9.888 25.232v11.148H12.154V84.559c0-9.82 3.815-18.76 10.037-25.428 1.488 2.097 2.78 4.228 3.824 6.396a1.42 1.42 0 001.892.662 1.417 1.417 0 00.662-1.892c-3.136-6.517-8.149-12.716-14.92-18.457l8.776-2.956c4.615 10.167 14.856 17.259 26.729 17.259 12.079 0 22.475-7.339 26.97-17.79.081.047.168.087.26.118l9.776 3.292c-7.644 5.624-12.484 11.762-14.762 18.708z"></path><circle cx="49.485" cy="83.963" r="1.43"></circle><circle cx="49.485" cy="77.594" r="1.43"></circle><circle cx="49.485" cy="90.332" r="1.43"></circle><path d="M32.237 40.236h3.821l4.254 6.112a1.418 1.418 0 002.326 0l4.255-6.112h6.103l4.255 6.112a1.416 1.416 0 002.326 0l4.255-6.112h2.281a1.418 1.418 0 100-2.834H32.237a1.418 1.418 0 000 2.834zm26.177 2.821l-1.672-2.401h3.344l-1.672 2.401zm-16.937 0l-1.672-2.401h3.343l-1.671 2.401zM34.764 23.298h2.012c-.002.036-.012.069-.012.104 0 1.549 1.264 2.812 2.813 2.812s2.812-1.263 2.812-2.812c0-.036-.009-.069-.011-.104h1.766a1.418 1.418 0 100-2.834h-9.379a1.418 1.418 0 00-.001 2.834zM56.783 23.298h2.529c-.002.036-.011.069-.011.104 0 1.549 1.263 2.812 2.812 2.812s2.812-1.263 2.812-2.812c0-.036-.009-.069-.011-.104h1.248a1.418 1.418 0 100-2.834h-9.379a1.418 1.418 0 000 2.834z"></path></g><!----></svg>